<svg width="23" height="20" viewBox="0 0 23 20" fill="none" xmlns="http://www.w3.org/2000/svg">
<path d="M10.875 20L15.4 8H17.45L22.1 20H19.925L18.9 16.85H14.1L12.925 20H10.875ZM14.65 15.1H18.2L16.45 10.25H16.4L14.65 15.1ZM3 17L1.625 15.625L6.725 10.525C6.09167 9.79167 5.52917 9.05417 5.0375 8.3125C4.54583 7.57083 4.11667 6.8 3.75 6H5.925C6.20833 6.55 6.52083 7.07083 6.8625 7.5625C7.20417 8.05417 7.59167 8.55833 8.025 9.075C8.775 8.29167 9.4 7.47917 9.9 6.6375C10.4 5.79583 10.825 4.91667 11.175 4H0V2H7V0H9V2H16V4H13.175C12.8083 5.15 12.3208 6.27917 11.7125 7.3875C11.1042 8.49583 10.3583 9.55 9.475 10.55L11.925 13.025L11.175 15.05L8 12L3 17Z" fill="#EA99B6"/>
</svg>
