<svg width="41" height="41" viewBox="0 0 41 41" fill="none" xmlns="http://www.w3.org/2000/svg">
<g clip-path="url(#clip0_5_257)">
<path d="M32.4583 0H8.54167C3.82496 0 0 3.82496 0 8.54167V32.4583C0 37.175 3.82496 41 8.54167 41H32.4583C37.1768 41 41 37.175 41 32.4583V8.54167C41 3.82496 37.1768 0 32.4583 0ZM13.6667 32.4583H8.54167V13.6667H13.6667V32.4583ZM11.1042 11.5005C9.45392 11.5005 8.11458 10.1509 8.11458 8.487C8.11458 6.82308 9.45392 5.4735 11.1042 5.4735C12.7544 5.4735 14.0938 6.82308 14.0938 8.487C14.0938 10.1509 12.7561 11.5005 11.1042 11.5005ZM34.1667 32.4583H29.0417V22.8848C29.0417 17.1312 22.2083 17.5668 22.2083 22.8848V32.4583H17.0833V13.6667H22.2083V16.6819C24.5932 12.2641 34.1667 11.9378 34.1667 20.9117V32.4583Z" fill="#EA99B6"/>
</g>
<defs>
<clipPath id="clip0_5_257">
<rect width="41" height="41" fill="white"/>
</clipPath>
</defs>
</svg>
