<svg width="257" height="28" viewBox="0 0 257 28" fill="none" xmlns="http://www.w3.org/2000/svg">
<path d="M10.252 17.877H3.73047V13.7637H10.252C11.2598 13.7637 12.0801 13.5996 12.7129 13.2715C13.3457 12.9316 13.8086 12.4629 14.1016 11.8652C14.3945 11.2676 14.541 10.5938 14.541 9.84375C14.541 9.08203 14.3945 8.37305 14.1016 7.7168C13.8086 7.06055 13.3457 6.5332 12.7129 6.13477C12.0801 5.73633 11.2598 5.53711 10.252 5.53711H5.55859V27H0.285156V1.40625H10.252C12.2559 1.40625 13.9727 1.76953 15.4023 2.49609C16.8438 3.21094 17.9453 4.20117 18.707 5.4668C19.4688 6.73242 19.8496 8.17969 19.8496 9.80859C19.8496 11.4609 19.4688 12.8906 18.707 14.0977C17.9453 15.3047 16.8438 16.2363 15.4023 16.8926C13.9727 17.5488 12.2559 17.877 10.252 17.877Z" fill="#120B0E"/>
<path d="M33.2266 22.7109V14.2383C33.2266 13.6289 33.127 13.1074 32.9277 12.6738C32.7285 12.2285 32.418 11.8828 31.9961 11.6367C31.5859 11.3906 31.0527 11.2676 30.3965 11.2676C29.834 11.2676 29.3477 11.3672 28.9375 11.5664C28.5273 11.7539 28.2109 12.0293 27.9883 12.3926C27.7656 12.7441 27.6543 13.1602 27.6543 13.6406H22.5918C22.5918 12.832 22.7793 12.0645 23.1543 11.3379C23.5293 10.6113 24.0742 9.97266 24.7891 9.42188C25.5039 8.85938 26.3535 8.41992 27.3379 8.10352C28.334 7.78711 29.4473 7.62891 30.6777 7.62891C32.1543 7.62891 33.4668 7.875 34.6152 8.36719C35.7637 8.85938 36.666 9.59766 37.3223 10.582C37.9902 11.5664 38.3242 12.7969 38.3242 14.2734V22.4121C38.3242 23.4551 38.3887 24.3105 38.5176 24.9785C38.6465 25.6348 38.834 26.209 39.0801 26.7012V27H33.9648C33.7188 26.4844 33.5312 25.8398 33.4023 25.0664C33.2852 24.2812 33.2266 23.4961 33.2266 22.7109ZM33.8945 15.416L33.9297 18.2812H31.0996C30.4316 18.2812 29.8516 18.3574 29.3594 18.5098C28.8672 18.6621 28.4629 18.8789 28.1465 19.1602C27.8301 19.4297 27.5957 19.7461 27.4434 20.1094C27.3027 20.4727 27.2324 20.8711 27.2324 21.3047C27.2324 21.7383 27.332 22.1309 27.5312 22.4824C27.7305 22.8223 28.0176 23.0918 28.3926 23.291C28.7676 23.4785 29.207 23.5723 29.7109 23.5723C30.4727 23.5723 31.1348 23.4199 31.6973 23.1152C32.2598 22.8105 32.6934 22.4355 32.998 21.9902C33.3145 21.5449 33.4785 21.123 33.4902 20.7246L34.8262 22.8691C34.6387 23.3496 34.3809 23.8477 34.0527 24.3633C33.7363 24.8789 33.332 25.3652 32.8398 25.8223C32.3477 26.2676 31.7559 26.6367 31.0645 26.9297C30.373 27.2109 29.5527 27.3516 28.6035 27.3516C27.3965 27.3516 26.3008 27.1113 25.3164 26.6309C24.3438 26.1387 23.5703 25.4648 22.9961 24.6094C22.4336 23.7422 22.1523 22.7578 22.1523 21.6562C22.1523 20.6602 22.3398 19.7754 22.7148 19.002C23.0898 18.2285 23.6406 17.5781 24.3672 17.0508C25.1055 16.5117 26.0254 16.1074 27.127 15.8379C28.2285 15.5566 29.5059 15.416 30.959 15.416H33.8945Z" fill="#120B0E"/>
<path d="M47.2891 11.918V27H42.209V7.98047H46.9727L47.2891 11.918ZM46.5859 16.8223H45.1797C45.1797 15.498 45.3379 14.2793 45.6543 13.166C45.9824 12.041 46.457 11.0684 47.0781 10.248C47.7109 9.41602 48.4902 8.77148 49.416 8.31445C50.3418 7.85742 51.4141 7.62891 52.6328 7.62891C53.4766 7.62891 54.25 7.75781 54.9531 8.01562C55.6562 8.26172 56.2598 8.6543 56.7637 9.19336C57.2793 9.7207 57.6777 10.4121 57.959 11.2676C58.2402 12.1113 58.3809 13.125 58.3809 14.3086V27H53.3184V14.8711C53.3184 14.0039 53.2012 13.3359 52.9668 12.8672C52.7324 12.3984 52.3984 12.0703 51.9648 11.8828C51.543 11.6953 51.0332 11.6016 50.4355 11.6016C49.7793 11.6016 49.2051 11.7363 48.7129 12.0059C48.2324 12.2754 47.834 12.6504 47.5176 13.1309C47.2012 13.5996 46.9668 14.1504 46.8145 14.7832C46.6621 15.416 46.5859 16.0957 46.5859 16.8223ZM57.9062 16.2422L56.0957 16.4707C56.0957 15.2285 56.248 14.0742 56.5527 13.0078C56.8691 11.9414 57.332 11.0039 57.9414 10.1953C58.5625 9.38672 59.3301 8.75977 60.2441 8.31445C61.1582 7.85742 62.2129 7.62891 63.4082 7.62891C64.3223 7.62891 65.1543 7.76367 65.9043 8.0332C66.6543 8.29102 67.293 8.70703 67.8203 9.28125C68.3594 9.84375 68.7695 10.582 69.0508 11.4961C69.3438 12.4102 69.4902 13.5293 69.4902 14.8535V27H64.4102V14.8535C64.4102 13.9746 64.293 13.3066 64.0586 12.8496C63.8359 12.3809 63.5078 12.0586 63.0742 11.8828C62.6523 11.6953 62.1484 11.6016 61.5625 11.6016C60.9531 11.6016 60.4199 11.7246 59.9629 11.9707C59.5059 12.2051 59.125 12.5332 58.8203 12.9551C58.5156 13.377 58.2871 13.8691 58.1348 14.4316C57.9824 14.9824 57.9062 15.5859 57.9062 16.2422Z" fill="#120B0E"/>
<path d="M82.1641 27.3516C80.6875 27.3516 79.3633 27.1172 78.1914 26.6484C77.0195 26.168 76.0234 25.5059 75.2031 24.6621C74.3945 23.8184 73.7734 22.8398 73.3398 21.7266C72.9062 20.6016 72.6895 19.4062 72.6895 18.1406V17.4375C72.6895 15.9961 72.8945 14.6777 73.3047 13.4824C73.7148 12.2871 74.3008 11.25 75.0625 10.3711C75.8359 9.49219 76.7734 8.81836 77.875 8.34961C78.9766 7.86914 80.2188 7.62891 81.6016 7.62891C82.9492 7.62891 84.1445 7.85156 85.1875 8.29688C86.2305 8.74219 87.1035 9.375 87.8066 10.1953C88.5215 11.0156 89.0605 12 89.4238 13.1484C89.7871 14.2852 89.9688 15.5508 89.9688 16.9453V19.0547H74.8516V15.6797H84.9941V15.293C84.9941 14.5898 84.8652 13.9629 84.6074 13.4121C84.3613 12.8496 83.9863 12.4043 83.4824 12.0762C82.9785 11.748 82.334 11.584 81.5488 11.584C80.8809 11.584 80.3066 11.7305 79.8262 12.0234C79.3457 12.3164 78.9531 12.7266 78.6484 13.2539C78.3555 13.7812 78.1328 14.4023 77.9805 15.1172C77.8398 15.8203 77.7695 16.5938 77.7695 17.4375V18.1406C77.7695 18.9023 77.875 19.6055 78.0859 20.25C78.3086 20.8945 78.6191 21.4512 79.0176 21.9199C79.4277 22.3887 79.9199 22.752 80.4941 23.0098C81.0801 23.2676 81.7422 23.3965 82.4805 23.3965C83.3945 23.3965 84.2441 23.2207 85.0293 22.8691C85.8262 22.5059 86.5117 21.9609 87.0859 21.2344L89.5469 23.9062C89.1484 24.4805 88.6035 25.0312 87.9121 25.5586C87.2324 26.0859 86.4121 26.5195 85.4512 26.8594C84.4902 27.1875 83.3945 27.3516 82.1641 27.3516Z" fill="#120B0E"/>
<path d="M98.1953 0V27H93.1152V0H98.1953Z" fill="#120B0E"/>
<path d="M112.645 22.7109V14.2383C112.645 13.6289 112.545 13.1074 112.346 12.6738C112.146 12.2285 111.836 11.8828 111.414 11.6367C111.004 11.3906 110.471 11.2676 109.814 11.2676C109.252 11.2676 108.766 11.3672 108.355 11.5664C107.945 11.7539 107.629 12.0293 107.406 12.3926C107.184 12.7441 107.072 13.1602 107.072 13.6406H102.01C102.01 12.832 102.197 12.0645 102.572 11.3379C102.947 10.6113 103.492 9.97266 104.207 9.42188C104.922 8.85938 105.771 8.41992 106.756 8.10352C107.752 7.78711 108.865 7.62891 110.096 7.62891C111.572 7.62891 112.885 7.875 114.033 8.36719C115.182 8.85938 116.084 9.59766 116.74 10.582C117.408 11.5664 117.742 12.7969 117.742 14.2734V22.4121C117.742 23.4551 117.807 24.3105 117.936 24.9785C118.064 25.6348 118.252 26.209 118.498 26.7012V27H113.383C113.137 26.4844 112.949 25.8398 112.82 25.0664C112.703 24.2812 112.645 23.4961 112.645 22.7109ZM113.312 15.416L113.348 18.2812H110.518C109.85 18.2812 109.27 18.3574 108.777 18.5098C108.285 18.6621 107.881 18.8789 107.564 19.1602C107.248 19.4297 107.014 19.7461 106.861 20.1094C106.721 20.4727 106.65 20.8711 106.65 21.3047C106.65 21.7383 106.75 22.1309 106.949 22.4824C107.148 22.8223 107.436 23.0918 107.811 23.291C108.186 23.4785 108.625 23.5723 109.129 23.5723C109.891 23.5723 110.553 23.4199 111.115 23.1152C111.678 22.8105 112.111 22.4355 112.416 21.9902C112.732 21.5449 112.896 21.123 112.908 20.7246L114.244 22.8691C114.057 23.3496 113.799 23.8477 113.471 24.3633C113.154 24.8789 112.75 25.3652 112.258 25.8223C111.766 26.2676 111.174 26.6367 110.482 26.9297C109.791 27.2109 108.971 27.3516 108.021 27.3516C106.814 27.3516 105.719 27.1113 104.734 26.6309C103.762 26.1387 102.988 25.4648 102.414 24.6094C101.852 23.7422 101.57 22.7578 101.57 21.6562C101.57 20.6602 101.758 19.7754 102.133 19.002C102.508 18.2285 103.059 17.5781 103.785 17.0508C104.523 16.5117 105.443 16.1074 106.545 15.8379C107.646 15.5566 108.924 15.416 110.377 15.416H113.312Z" fill="#120B0E"/>
<path d="M133.334 1.40625H137.799L144.373 20.1973L150.947 1.40625H155.412L146.166 27H142.58L133.334 1.40625ZM130.926 1.40625H135.373L136.182 19.7227V27H130.926V1.40625ZM153.373 1.40625H157.838V27H152.564V19.7227L153.373 1.40625Z" fill="#120B0E"/>
<path d="M170.898 27.3516C169.422 27.3516 168.098 27.1172 166.926 26.6484C165.754 26.168 164.758 25.5059 163.938 24.6621C163.129 23.8184 162.508 22.8398 162.074 21.7266C161.641 20.6016 161.424 19.4062 161.424 18.1406V17.4375C161.424 15.9961 161.629 14.6777 162.039 13.4824C162.449 12.2871 163.035 11.25 163.797 10.3711C164.57 9.49219 165.508 8.81836 166.609 8.34961C167.711 7.86914 168.953 7.62891 170.336 7.62891C171.684 7.62891 172.879 7.85156 173.922 8.29688C174.965 8.74219 175.838 9.375 176.541 10.1953C177.256 11.0156 177.795 12 178.158 13.1484C178.521 14.2852 178.703 15.5508 178.703 16.9453V19.0547H163.586V15.6797H173.729V15.293C173.729 14.5898 173.6 13.9629 173.342 13.4121C173.096 12.8496 172.721 12.4043 172.217 12.0762C171.713 11.748 171.068 11.584 170.283 11.584C169.615 11.584 169.041 11.7305 168.561 12.0234C168.08 12.3164 167.688 12.7266 167.383 13.2539C167.09 13.7812 166.867 14.4023 166.715 15.1172C166.574 15.8203 166.504 16.5938 166.504 17.4375V18.1406C166.504 18.9023 166.609 19.6055 166.82 20.25C167.043 20.8945 167.354 21.4512 167.752 21.9199C168.162 22.3887 168.654 22.752 169.229 23.0098C169.814 23.2676 170.477 23.3965 171.215 23.3965C172.129 23.3965 172.979 23.2207 173.764 22.8691C174.561 22.5059 175.246 21.9609 175.82 21.2344L178.281 23.9062C177.883 24.4805 177.338 25.0312 176.646 25.5586C175.967 26.0859 175.146 26.5195 174.186 26.8594C173.225 27.1875 172.129 27.3516 170.898 27.3516Z" fill="#120B0E"/>
<path d="M186.543 12.041V27H181.48V7.98047H186.227L186.543 12.041ZM185.805 16.8223H184.434C184.434 15.416 184.615 14.1504 184.979 13.0254C185.342 11.8887 185.852 10.9219 186.508 10.125C187.164 9.31641 187.943 8.70117 188.846 8.2793C189.76 7.8457 190.779 7.62891 191.904 7.62891C192.795 7.62891 193.609 7.75781 194.348 8.01562C195.086 8.27344 195.719 8.68359 196.246 9.24609C196.785 9.80859 197.195 10.5527 197.477 11.4785C197.77 12.4043 197.916 13.5352 197.916 14.8711V27H192.818V14.8535C192.818 14.0098 192.701 13.3535 192.467 12.8848C192.232 12.416 191.887 12.0879 191.43 11.9004C190.984 11.7012 190.434 11.6016 189.777 11.6016C189.098 11.6016 188.506 11.7363 188.002 12.0059C187.51 12.2754 187.1 12.6504 186.771 13.1309C186.455 13.5996 186.215 14.1504 186.051 14.7832C185.887 15.416 185.805 16.0957 185.805 16.8223Z" fill="#120B0E"/>
<path d="M212.998 22.8516V0H218.096V27H213.508L212.998 22.8516ZM200.975 17.7188V17.3496C200.975 15.8965 201.139 14.5781 201.467 13.3945C201.795 12.1992 202.275 11.1738 202.908 10.3184C203.541 9.46289 204.32 8.80078 205.246 8.33203C206.172 7.86328 207.227 7.62891 208.41 7.62891C209.523 7.62891 210.496 7.86328 211.328 8.33203C212.172 8.80078 212.887 9.46875 213.473 10.3359C214.07 11.1914 214.551 12.2051 214.914 13.377C215.277 14.5371 215.541 15.8086 215.705 17.1914V18C215.541 19.3242 215.277 20.5547 214.914 21.6914C214.551 22.8281 214.07 23.8242 213.473 24.6797C212.887 25.5234 212.172 26.1797 211.328 26.6484C210.484 27.1172 209.5 27.3516 208.375 27.3516C207.191 27.3516 206.137 27.1113 205.211 26.6309C204.297 26.1504 203.523 25.4766 202.891 24.6094C202.27 23.7422 201.795 22.7227 201.467 21.5508C201.139 20.3789 200.975 19.1016 200.975 17.7188ZM206.037 17.3496V17.7188C206.037 18.5039 206.096 19.2363 206.213 19.916C206.342 20.5957 206.547 21.1992 206.828 21.7266C207.121 22.2422 207.496 22.6465 207.953 22.9395C208.422 23.2207 208.99 23.3613 209.658 23.3613C210.525 23.3613 211.24 23.168 211.803 22.7812C212.365 22.3828 212.793 21.8379 213.086 21.1465C213.391 20.4551 213.566 19.6582 213.613 18.7559V16.4531C213.578 15.7148 213.473 15.0527 213.297 14.4668C213.133 13.8691 212.887 13.3594 212.559 12.9375C212.242 12.5156 211.844 12.1875 211.363 11.9531C210.895 11.7188 210.338 11.6016 209.693 11.6016C209.037 11.6016 208.475 11.7539 208.006 12.0586C207.537 12.3516 207.156 12.7559 206.863 13.2715C206.582 13.7871 206.371 14.3965 206.23 15.0996C206.102 15.791 206.037 16.541 206.037 17.3496Z" fill="#120B0E"/>
<path d="M230.805 27.3516C229.328 27.3516 228.004 27.1172 226.832 26.6484C225.66 26.168 224.664 25.5059 223.844 24.6621C223.035 23.8184 222.414 22.8398 221.98 21.7266C221.547 20.6016 221.33 19.4062 221.33 18.1406V17.4375C221.33 15.9961 221.535 14.6777 221.945 13.4824C222.355 12.2871 222.941 11.25 223.703 10.3711C224.477 9.49219 225.414 8.81836 226.516 8.34961C227.617 7.86914 228.859 7.62891 230.242 7.62891C231.59 7.62891 232.785 7.85156 233.828 8.29688C234.871 8.74219 235.744 9.375 236.447 10.1953C237.162 11.0156 237.701 12 238.064 13.1484C238.428 14.2852 238.609 15.5508 238.609 16.9453V19.0547H223.492V15.6797H233.635V15.293C233.635 14.5898 233.506 13.9629 233.248 13.4121C233.002 12.8496 232.627 12.4043 232.123 12.0762C231.619 11.748 230.975 11.584 230.189 11.584C229.521 11.584 228.947 11.7305 228.467 12.0234C227.986 12.3164 227.594 12.7266 227.289 13.2539C226.996 13.7812 226.773 14.4023 226.621 15.1172C226.48 15.8203 226.41 16.5938 226.41 17.4375V18.1406C226.41 18.9023 226.516 19.6055 226.727 20.25C226.949 20.8945 227.26 21.4512 227.658 21.9199C228.068 22.3887 228.561 22.752 229.135 23.0098C229.721 23.2676 230.383 23.3965 231.121 23.3965C232.035 23.3965 232.885 23.2207 233.67 22.8691C234.467 22.5059 235.152 21.9609 235.727 21.2344L238.188 23.9062C237.789 24.4805 237.244 25.0312 236.553 25.5586C235.873 26.0859 235.053 26.5195 234.092 26.8594C233.131 27.1875 232.035 27.3516 230.805 27.3516Z" fill="#120B0E"/>
<path d="M251.775 21.7441C251.775 21.3809 251.67 21.0527 251.459 20.7598C251.248 20.4668 250.855 20.1973 250.281 19.9512C249.719 19.6934 248.904 19.459 247.838 19.248C246.877 19.0371 245.98 18.7734 245.148 18.457C244.328 18.1289 243.613 17.7363 243.004 17.2793C242.406 16.8223 241.938 16.2832 241.598 15.6621C241.258 15.0293 241.088 14.3086 241.088 13.5C241.088 12.7031 241.258 11.9531 241.598 11.25C241.949 10.5469 242.447 9.92578 243.092 9.38672C243.748 8.83594 244.545 8.4082 245.482 8.10352C246.432 7.78711 247.498 7.62891 248.682 7.62891C250.334 7.62891 251.752 7.89258 252.936 8.41992C254.131 8.94727 255.045 9.67383 255.678 10.5996C256.322 11.5137 256.645 12.5566 256.645 13.7285H251.582C251.582 13.2363 251.477 12.7969 251.266 12.4102C251.066 12.0117 250.75 11.7012 250.316 11.4785C249.895 11.2441 249.344 11.127 248.664 11.127C248.102 11.127 247.615 11.2266 247.205 11.4258C246.795 11.6133 246.479 11.8711 246.256 12.1992C246.045 12.5156 245.939 12.8672 245.939 13.2539C245.939 13.5469 245.998 13.8105 246.115 14.0449C246.244 14.2676 246.449 14.4727 246.73 14.6602C247.012 14.8477 247.375 15.0234 247.82 15.1875C248.277 15.3398 248.84 15.4805 249.508 15.6094C250.879 15.8906 252.104 16.2598 253.182 16.7168C254.26 17.1621 255.115 17.7715 255.748 18.5449C256.381 19.3066 256.697 20.3086 256.697 21.5508C256.697 22.3945 256.51 23.168 256.135 23.8711C255.76 24.5742 255.221 25.1895 254.518 25.7168C253.814 26.2324 252.971 26.6367 251.986 26.9297C251.014 27.2109 249.918 27.3516 248.699 27.3516C246.93 27.3516 245.43 27.0352 244.199 26.4023C242.98 25.7695 242.055 24.9668 241.422 23.9941C240.801 23.0098 240.49 22.002 240.49 20.9707H245.289C245.312 21.6621 245.488 22.2188 245.816 22.6406C246.156 23.0625 246.584 23.3672 247.1 23.5547C247.627 23.7422 248.195 23.8359 248.805 23.8359C249.461 23.8359 250.006 23.748 250.439 23.5723C250.873 23.3848 251.201 23.1387 251.424 22.834C251.658 22.5176 251.775 22.1543 251.775 21.7441Z" fill="#120B0E"/>
</svg>
